<svg xmlns="http://www.w3.org/2000/svg" viewBox="0 0 1200 200" preserveAspectRatio="none">
  <path class="mountain-line" d="M0,180 
    C20,178 40,175 60,176 
    C80,177 100,178 120,175 
    C140,172 160,168 180,165 
    C200,162 220,160 240,158 
    C260,156 280,155 300,152 
    C320,149 340,145 360,140 
    C380,135 400,130 420,122 
    C440,114 460,105 480,95 
    C500,85 520,72 540,58 
    C550,50 555,42 560,35 
    C565,28 568,22 572,18 
    C576,14 580,12 584,15 
    C588,18 590,24 592,22 
    C594,20 595,16 598,14 
    C601,12 605,12 608,16 
    C611,20 613,28 616,32 
    C619,36 622,38 626,42 
    C630,46 635,52 642,60 
    C649,68 658,78 668,88 
    C678,98 690,108 702,118 
    C714,128 728,138 742,145 
    C756,152 772,156 788,158 
    C804,160 822,160 840,158 
    C858,156 878,152 898,150 
    C918,148 940,148 962,146 
    C984,144 1008,140 1030,138 
    C1052,136 1076,136 1100,134 
    C1124,132 1150,130 1175,128 
    L1200,126" 
    fill="none" 
    stroke="currentColor" 
    stroke-width="1.5"
    stroke-linecap="round"
    stroke-linejoin="round"/>
</svg>
